{
  "asset": {
    "generator": "Khronos glTF Blender I/O v1.6.16",
    "version": "2.0"
  },
  "scene": 0,
  "scenes": [
    {
      "name": "Scene",
      "nodes": [
        0
      ]
    }
  ],
  "nodes": [
    {
      "mesh": 0,
      "name": "sphere_gltf"
    }
  ],
  "materials": [
    {
      "doubleSided": true,
      "name": "snow_03",
      "normalTexture": {
        "index": 0
      },
      "pbrMetallicRoughness": {
        "baseColorTexture": {
          "index": 1
        },
        "metallicFactor": 0,
        "metallicRoughnessTexture": {
          "index": 2
        }
      }
    }
  ],
  "meshes": [
    {
      "name": "Sphere.001",
      "primitives": [
        {
          "attributes": {
            "POSITION": 0,
            "NORMAL": 1,
            "TEXCOORD_0": 2
          },
          "indices": 3,
          "material": 0
        }
      ]
    }
  ],
  "textures": [
    {
      "sampler": 0,
      "source": 0
    },
    {
      "sampler": 0,
      "source": 1
    },
    {
      "sampler": 0,
      "source": 2
    }
  ],
  "images": [
    {
      "mimeType": "image/jpeg",
      "name": "snow_03_nor_gl_4k",
      "uri": "textures/snow_03_nor_gl_4k.jpg"
    },
    {
      "mimeType": "image/jpeg",
      "name": "snow_03_diff_4k",
      "uri": "textures/snow_03_diff_4k.jpg"
    },
    {
      "mimeType": "image/jpeg",
      "name": "snow_03_rough_4k",
      "uri": "textures/snow_03_rough_4k.jpg"
    }
  ],
  "accessors": [
    {
      "bufferView": 0,
      "componentType": 5126,
      "count": 53892,
      "max": [
        1.0092780590057373,
        1.0092053413391113,
        1.0125199556350708
      ],
      "min": [
        -1.0092779397964478,
        -1.0109827518463135,
        -1.012520670890808
      ],
      "type": "VEC3"
    },
    {
      "bufferView": 1,
      "componentType": 5126,
      "count": 53892,
      "type": "VEC3"
    },
    {
      "bufferView": 2,
      "componentType": 5126,
      "count": 53892,
      "type": "VEC2"
    },
    {
      "bufferView": 3,
      "componentType": 5123,
      "count": 322170,
      "type": "SCALAR"
    }
  ],
  "bufferViews": [
    {
      "buffer": 0,
      "byteLength": 646704,
      "byteOffset": 0
    },
    {
      "buffer": 0,
      "byteLength": 646704,
      "byteOffset": 646704
    },
    {
      "buffer": 0,
      "byteLength": 431136,
      "byteOffset": 1293408
    },
    {
      "buffer": 0,
      "byteLength": 644340,
      "byteOffset": 1724544
    }
  ],
  "samplers": [
    {
      "magFilter": 9729,
      "minFilter": 9987
    }
  ],
  "buffers": [
    {
      "byteLength": 2368884,
      "uri": "snow_03.bin"
    }
  ]
}