{
  "asset": {
    "generator": "Khronos glTF Blender I/O v1.6.16",
    "version": "2.0"
  },
  "scene": 0,
  "scenes": [
    {
      "name": "Scene",
      "nodes": [
        0
      ]
    }
  ],
  "nodes": [
    {
      "mesh": 0,
      "name": "sphere_gltf"
    }
  ],
  "materials": [
    {
      "doubleSided": true,
      "name": "wood_table_001",
      "normalTexture": {
        "index": 0,
        "scale": 0.3499999940395355
      },
      "pbrMetallicRoughness": {
        "baseColorTexture": {
          "index": 1
        },
        "metallicFactor": 0,
        "metallicRoughnessTexture": {
          "index": 2
        }
      }
    }
  ],
  "meshes": [
    {
      "name": "Sphere.001",
      "primitives": [
        {
          "attributes": {
            "POSITION": 0,
            "NORMAL": 1,
            "TEXCOORD_0": 2
          },
          "indices": 3,
          "material": 0
        }
      ]
    }
  ],
  "textures": [
    {
      "sampler": 0,
      "source": 0
    },
    {
      "sampler": 0,
      "source": 1
    },
    {
      "sampler": 0,
      "source": 2
    }
  ],
  "images": [
    {
      "mimeType": "image/jpeg",
      "name": "wood_table_001_nor_gl_16k",
      "uri": "textures/wood_table_001_nor_gl_4k.jpg"
    },
    {
      "mimeType": "image/jpeg",
      "name": "wood_table_001_diff_16k",
      "uri": "textures/wood_table_001_diff_4k.jpg"
    },
    {
      "mimeType": "image/jpeg",
      "name": "wood_table_001_rough_16k",
      "uri": "textures/wood_table_001_rough_4k.jpg"
    }
  ],
  "accessors": [
    {
      "bufferView": 0,
      "componentType": 5126,
      "count": 53898,
      "max": [
        0.7499831914901733,
        0.7499886751174927,
        0.7499914765357971
      ],
      "min": [
        -0.7499830722808838,
        -0.7499830722808838,
        -0.7499887347221375
      ],
      "type": "VEC3"
    },
    {
      "bufferView": 1,
      "componentType": 5126,
      "count": 53898,
      "type": "VEC3"
    },
    {
      "bufferView": 2,
      "componentType": 5126,
      "count": 53898,
      "type": "VEC2"
    },
    {
      "bufferView": 3,
      "componentType": 5123,
      "count": 322170,
      "type": "SCALAR"
    }
  ],
  "bufferViews": [
    {
      "buffer": 0,
      "byteLength": 646776,
      "byteOffset": 0
    },
    {
      "buffer": 0,
      "byteLength": 646776,
      "byteOffset": 646776
    },
    {
      "buffer": 0,
      "byteLength": 431184,
      "byteOffset": 1293552
    },
    {
      "buffer": 0,
      "byteLength": 644340,
      "byteOffset": 1724736
    }
  ],
  "samplers": [
    {
      "magFilter": 9729,
      "minFilter": 9987
    }
  ],
  "buffers": [
    {
      "byteLength": 2369076,
      "uri": "wood_table_001.bin"
    }
  ]
}